<svg xmlns="http://www.w3.org/2000/svg" viewBox="0 0 1600 900" fill="none">
  <defs>
    <linearGradient id="bg" x1="140" y1="80" x2="1480" y2="860" gradientUnits="userSpaceOnUse">
      <stop stop-color="#0E0E0E"/>
      <stop offset="1" stop-color="#1D1A16"/>
    </linearGradient>
    <radialGradient id="glowLeft" cx="0" cy="0" r="1" gradientUnits="userSpaceOnUse" gradientTransform="translate(260 300) rotate(20) scale(380 300)">
      <stop stop-color="#D4AF37" stop-opacity="0.42"/>
      <stop offset="1" stop-color="#D4AF37" stop-opacity="0"/>
    </radialGradient>
    <radialGradient id="glowRight" cx="0" cy="0" r="1" gradientUnits="userSpaceOnUse" gradientTransform="translate(1230 320) rotate(140) scale(360 280)">
      <stop stop-color="#D4AF37" stop-opacity="0.24"/>
      <stop offset="1" stop-color="#D4AF37" stop-opacity="0"/>
    </radialGradient>
  </defs>
  <rect width="1600" height="900" fill="url(#bg)"/>
  <rect width="1600" height="900" fill="url(#glowLeft)"/>
  <rect width="1600" height="900" fill="url(#glowRight)"/>
  <path d="M1135 120c88 55 160 148 193 265 33 117 15 237-39 335-54 98-142 173-247 216-105 43-229 53-341 11-112-42-205-136-258-255-53-119-58-263-9-386 49-123 153-223 286-263 133-40 284-14 415 77Z" fill="#000" fill-opacity="0.26"/>
  <path d="M1165 255c22 6 38 26 39 49 1 18-8 35-22 47l39 166-23 5-39-166c-18-4-33-17-38-35-7-22 2-47 22-60 7-4 14-7 22-8Z" fill="#D4AF37" fill-opacity="0.55"/>
  <path d="M1235 232c-6 22 5 46 25 58l-23 169 24 3 23-169c17-6 30-21 34-39 5-23-8-47-30-57-7-3-15-5-23-5-14 0-26 6-30 19Z" fill="#D4AF37" fill-opacity="0.45"/>
  <circle cx="1230" cy="216" r="13" stroke="#D4AF37" stroke-opacity="0.68" stroke-width="6"/>
  <circle cx="1153" cy="241" r="12" stroke="#D4AF37" stroke-opacity="0.68" stroke-width="6"/>
</svg>
